<svg xmlns="http://www.w3.org/2000/svg" version="1.1" xmlns:xlink="http://www.w3.org/1999/xlink" xmlns:svgjs="http://svgjs.com/svgjs" width="1980" height="1080" preserveAspectRatio="none" viewBox="0 0 1980 1080"><g mask="url(&quot;#SvgjsMask1048&quot;)" fill="none"><rect width="1980" height="1080" x="0" y="0" fill="rgba(5, 36, 67, 1)"></rect><path d="M110 1080L1190 0L1323.5 0L243.5 1080z" fill="url(#SvgjsLinearGradient1049)"></path><path d="M780.4 1080L1860.4 0L2824.9 0L1744.9 1080z" fill="url(#SvgjsLinearGradient1049)"></path><path d="M1851 1080L771 0L615 0L1695 1080z" fill="url(#SvgjsLinearGradient1050)"></path><path d="M1273.6 1080L193.5999999999999 0L-430.4000000000001 0L649.5999999999999 1080z" fill="url(#SvgjsLinearGradient1050)"></path><path d="M1427.9435148107532 1080L1980 527.9435148107533L1980 1080z" fill="url(#SvgjsLinearGradient1049)"></path><path d="M0 1080L552.0564851892467 1080L 0 527.9435148107533z" fill="url(#SvgjsLinearGradient1050)"></path></g><defs><mask id="SvgjsMask1048"><rect width="1980" height="1080" fill="#ffffff"></rect></mask><linearGradient x1="0%" y1="100%" x2="100%" y2="0%" id="SvgjsLinearGradient1049"><stop stop-color="rgba(8, 173, 203, 0.41)" offset="0"></stop><stop stop-opacity="0" stop-color="rgba(8, 173, 203, 0.41)" offset="0.66"></stop></linearGradient><linearGradient x1="100%" y1="100%" x2="0%" y2="0%" id="SvgjsLinearGradient1050"><stop stop-color="rgba(8, 173, 203, 0.41)" offset="0"></stop><stop stop-opacity="0" stop-color="rgba(8, 173, 203, 0.41)" offset="0.66"></stop></linearGradient></defs></svg>