<?xml version="1.0" encoding="UTF-8" standalone="no"?>
<svg
   width="250.08366"
   height="125"
   viewBox="0 0 250.08366 125"
   data-name="Layer 1"
   version="1.1"
   id="svg73"
   sodipodi:docname="kotlin-and-swift.svg"
   inkscape:version="1.2.1 (9c6d41e410, 2022-07-14)"
   xmlns:inkscape="http://www.inkscape.org/namespaces/inkscape"
   xmlns:sodipodi="http://sodipodi.sourceforge.net/DTD/sodipodi-0.dtd"
   xmlns:xlink="http://www.w3.org/1999/xlink"
   xmlns="http://www.w3.org/2000/svg"
   xmlns:svg="http://www.w3.org/2000/svg"
   xmlns:rdf="http://www.w3.org/1999/02/22-rdf-syntax-ns#"
   xmlns:cc="http://creativecommons.org/ns#"
   xmlns:dc="http://purl.org/dc/elements/1.1/">
  <sodipodi:namedview
     id="namedview75"
     pagecolor="#ffffff"
     bordercolor="#000000"
     borderopacity="0.25"
     inkscape:showpageshadow="2"
     inkscape:pageopacity="0.0"
     inkscape:pagecheckerboard="0"
     inkscape:deskcolor="#d1d1d1"
     showgrid="false"
     inkscape:zoom="2.054"
     inkscape:cx="400.92502"
     inkscape:cy="9.2502434"
     inkscape:window-width="2560"
     inkscape:window-height="1377"
     inkscape:window-x="-8"
     inkscape:window-y="-8"
     inkscape:window-maximized="1"
     inkscape:current-layer="svg73" />
  <defs
     id="defs63">
    <linearGradient
       id="b"
       x1="-21.045"
       y1="114.925"
       x2="95.274002"
       y2="-1.395"
       gradientUnits="userSpaceOnUse">
      <stop
         offset=".108"
         stop-color="#c757bc"
         id="stop44" />
      <stop
         offset=".173"
         stop-color="#cd5ca9"
         id="stop46" />
      <stop
         offset=".492"
         stop-color="#e8744f"
         id="stop48" />
      <stop
         offset=".716"
         stop-color="#f88316"
         id="stop50" />
      <stop
         offset=".823"
         stop-color="#ff8900"
         id="stop52" />
    </linearGradient>
    <linearGradient
       id="a"
       x1="39.893002"
       y1="147.552"
       x2="96.588997"
       y2="90.856003"
       gradientUnits="userSpaceOnUse">
      <stop
         offset=".296"
         stop-color="#00afff"
         id="stop55" />
      <stop
         offset=".694"
         stop-color="#5282ff"
         id="stop57" />
      <stop
         offset="1"
         stop-color="#945dff"
         id="stop59" />
    </linearGradient>
    <linearGradient
       id="c"
       x1="-1.501"
       y1="34.500999"
       x2="38.271999"
       y2="-5.2729998"
       xlink:href="#a" />
    <linearGradient
       inkscape:collect="always"
       xlink:href="#a"
       id="linearGradient473"
       gradientUnits="userSpaceOnUse"
       x1="39.893002"
       y1="147.552"
       x2="96.588997"
       y2="90.856003" />
  </defs>
  <title
     id="title65">icon_Kotlin</title>
  <path
     fill="url(#b)"
     d="M 62.759,0 0,65.999 V 125 L 62.669,62.221 125,0 Z"
     id="path67"
     style="fill:url(#b)" />
  <path
     data-name="&lt;Path&gt;"
     fill="url(#a)"
     d="M 0,125 62.669,62.222 125,125 Z"
     id="path69"
     style="fill:url(#linearGradient473)" />
  <path
     fill="url(#c)"
     d="M 0,0 H 62.759 L 0,65.999 Z"
     id="path71"
     style="fill:url(#c)" />
  <path
     fill="#f05138"
     d="m 250.08367,34.61421 v -3.780163 c -0.11813,-2.716993 -0.23625,-5.552116 -0.70874,-8.269108 -0.47249,-2.716992 -1.29936,-5.315855 -2.59871,-7.796587 -1.29936,-2.480732 -2.83496,-4.725204 -4.84305,-6.6152859 -2.0081,-2.0082116 -4.25244,-3.5439031 -6.6149,-4.8433341 -2.48059,-1.2994312 -5.0793,-2.1263419 -7.79613,-2.59886227 -2.71683,-0.4725204 -5.43366,-0.7087806 -8.26862,-0.7087806 h -63.43213 c -0.70874,0 -1.41747,0 -2.00809,0.1181301 -2.00809,0.1181301 -4.13431,0.2362602 -6.1424,0.5906505 -2.0081,0.35439027 -4.01619,0.94504077 -5.90616,1.65382137 -0.59062,0.2362602 -1.29936,0.5906505 -1.88997,0.8269107 -1.88997,0.9450408 -3.54369,2.126342 -5.19742,3.4257731 -0.47249,0.4725202 -1.06311,0.9450406 -1.5356,1.417561 -2.00809,2.0082121 -3.54369,4.2526841 -4.84305,6.6152871 -1.29935,2.480732 -2.12621,5.079593 -2.59871,7.796587 -0.47249,2.716992 -0.59061,5.433984 -0.70874,8.269106 v 63.435865 c 0.11813,2.716992 0.23625,5.552115 0.70874,8.269109 0.4725,2.71698 1.29936,5.31585 2.59871,7.79658 1.29936,2.48073 2.83496,4.7252 4.84305,6.61528 2.00809,2.00821 4.25243,3.5439 6.6149,4.84333 2.48058,1.29944 5.07929,2.12634 7.79612,2.59887 2.71684,0.47252 5.43367,0.70879 8.26862,0.70879 h 63.43213 c 2.71683,-0.11813 5.55179,-0.23627 8.26862,-0.70879 2.71683,-0.47253 5.31554,-1.29943 7.79613,-2.59887 2.48059,-1.29943 4.72492,-2.83512 6.6149,-4.84333 2.00809,-2.00821 3.54369,-4.25268 4.84305,-6.61528 1.29935,-2.48073 2.12622,-5.0796 2.59871,-7.79658 0.47249,-2.716994 0.70874,-5.433986 0.70874,-8.269109 V 90.371617 38.985023 Z"
     id="path267"
     style="stroke-width:1.18126" />
  <path
     fill="#ffffff"
     d="m 223.97845,77.259176 0.35436,-1.417561 c 5.19743,-20.672768 -7.44175,-45.243829 -28.94016,-58.120009 9.44985,12.75805 13.58416,28.233093 9.92234,41.699925 -0.35437,1.181301 -0.70874,2.362602 -1.18123,3.543904 -0.47249,-0.354391 -1.06311,-0.708782 -1.88997,-1.063172 0,0 -21.38029,-13.230571 -44.53243,-36.502201 -0.59061,-0.590651 12.40293,18.546426 27.0502,34.021469 -6.96926,-3.898294 -26.22333,-17.955775 -38.50814,-29.060005 1.5356,2.480732 3.30745,4.961465 5.19742,7.205937 10.15859,12.99431 23.5065,28.941874 39.45313,41.227405 -11.2217,6.851545 -27.0502,7.442196 -42.76058,0 -3.89806,-1.771952 -7.55988,-4.016424 -10.98545,-6.497156 6.61489,10.631709 16.89161,19.845857 29.41266,25.279841 14.88351,6.379017 29.76703,6.024637 40.75248,0.118131 0,0 0.11813,0 0.11813,-0.118131 0.47249,-0.23626 0.94498,-0.590649 1.41747,-0.826909 5.31554,-2.716993 15.71038,-5.433986 21.38029,5.433986 1.65373,2.48072 4.60681,-11.694882 -6.26052,-24.925454 z"
     id="path269"
     style="stroke-width:1.18126" />
  <metadata
     id="metadata475">
    <rdf:RDF>
      <cc:Work
         rdf:about="">
        <dc:title>icon_Kotlin</dc:title>
      </cc:Work>
    </rdf:RDF>
  </metadata>
</svg>
